<svg width="334" height="284" viewBox="0 0 334 284" fill="none" xmlns="http://www.w3.org/2000/svg">
<g clip-path="url(#clip0_1_97)">
<path opacity="0.1" d="M310.773 191.438C297.719 201.873 296.594 222.369 298.837 239.704C299.589 245.506 300.534 251.689 298.256 257.009C295.47 263.514 288.557 266.845 281.951 267.753C269.911 269.405 257.249 264.473 248.984 254.908C241.841 246.642 238.05 235.49 230.692 227.444C218.371 213.981 198.888 212.006 181.408 213.695C169.039 214.888 155.281 217.121 145.294 209.178C138.268 203.586 134.869 193.984 134.047 184.623C133.656 180.103 133.731 175.361 131.836 171.313C130.702 168.906 128.933 166.915 127.056 165.123C109.92 148.771 83.4803 147.109 67.2069 129.774C56.2159 118.064 51.6665 100.706 51.9161 84.0675C52.1657 67.4294 56.715 51.2331 61.7098 35.4618C65.2513 24.2655 69.5132 12.4505 78.4981 5.63895C87.979 -1.56353 101.134 -1.43777 111.787 3.57915C122.44 8.59608 130.913 17.8346 137.892 27.8412C146.615 40.3495 153.957 54.8973 166.594 62.6232C175.216 67.9018 185.284 69.3328 194.948 71.6407C211.102 75.4918 226.604 81.9567 241.968 88.5677C256.677 94.8933 271.447 101.443 284.57 111.001C293.858 117.755 300.341 126.976 308.805 134.577C314.321 139.529 320.974 142.394 325.941 148.098C332.057 155.124 336.654 165.579 332.259 174.95C328.089 183.852 317.698 185.898 310.773 191.438Z" fill="#6C63FF"/>
<path d="M2.24939 191.935C2.24939 191.935 -13.4111 218.257 37.9269 218.709C37.9269 218.709 38.682 195.806 21.9 186.371C18.6368 184.528 14.8586 184.036 11.2812 184.99C7.70388 185.943 4.57577 188.275 2.48949 191.544L2.24939 191.935Z" fill="#6C63FF"/>
<path d="M2.36629 191.493C2.36629 191.493 28.6608 197.067 37.9269 218.709" stroke="#535461" stroke-miterlimit="10"/>
<path d="M40.2205 215.167C40.2205 215.167 23.3374 191.693 24.8792 168.553C25.511 158.842 23.3912 149.141 18.4943 140.95C16.1642 137.071 13.5088 133.43 10.5614 130.073" stroke="#535461" stroke-width="2" stroke-miterlimit="10"/>
<path d="M11.446 115.488C12.6244 118.737 10.574 130.46 10.574 130.46C10.574 130.46 1.68705 123.326 0.508642 120.076C0.197929 119.298 0.0360617 118.459 0.0326775 117.612C0.0292933 116.764 0.184461 115.924 0.488942 115.143C0.793423 114.361 1.241 113.653 1.80501 113.061C2.36903 112.469 3.03796 112.005 3.77198 111.698C4.50601 111.39 5.29012 111.244 6.07764 111.268C6.86516 111.293 7.63999 111.488 8.356 111.842C9.07202 112.196 9.71457 112.701 10.2454 113.327C10.7763 113.953 11.1846 114.688 11.446 115.488Z" fill="#6C63FF"/>
<path d="M27.0211 129.689C26.3703 133.108 18.7249 141.749 18.7249 141.749C18.7249 141.749 14.8643 130.566 15.5151 127.133C15.6534 126.303 15.9446 125.511 16.3716 124.804C16.7986 124.098 17.3528 123.49 18.0015 123.017C18.6502 122.544 19.3803 122.215 20.1489 122.051C20.9174 121.886 21.7088 121.888 22.4764 122.058C23.244 122.227 23.9724 122.56 24.6185 123.037C25.2647 123.514 25.8156 124.125 26.2388 124.835C26.6621 125.545 26.949 126.338 27.0828 127.169C27.2167 127.999 27.1946 128.851 27.018 129.672L27.0211 129.689Z" fill="#6C63FF"/>
<path d="M37.7879 160.62C35.6206 163.217 24.9708 166.524 24.9708 166.524C24.9708 166.524 26.8853 154.773 29.0494 152.177C30.0964 150.956 31.548 150.228 33.0903 150.15C34.6325 150.072 36.1412 150.65 37.2899 151.76C38.4386 152.87 39.1349 154.422 39.2281 156.08C39.3213 157.738 38.8039 159.369 37.7879 160.62Z" fill="#6C63FF"/>
<path d="M41.0356 186C39.3075 188.954 29.3274 194.158 29.3274 194.158C29.3274 194.158 29.3685 182.231 31.0966 179.277C31.4992 178.556 32.0313 177.929 32.6619 177.433C33.2925 176.937 34.0088 176.58 34.7689 176.386C35.529 176.191 36.3177 176.161 37.0886 176.298C37.8595 176.435 38.5972 176.737 39.2585 177.185C39.9199 177.632 40.4915 178.218 40.9399 178.906C41.3883 179.595 41.7045 180.372 41.87 181.194C42.0355 182.016 42.047 182.864 41.9037 183.691C41.7604 184.517 41.4653 185.305 41.0356 186.007V186Z" fill="#6C63FF"/>
<path d="M7.45901 147.2C10.4477 148.56 21.3945 146.663 21.3945 146.663C21.3945 146.663 15.0191 136.902 12.0305 135.542C11.3189 135.219 10.5553 135.05 9.78304 135.045C9.01081 135.039 8.24515 135.197 7.52979 135.51C6.81442 135.823 6.16334 136.285 5.61374 136.868C5.06414 137.452 4.62677 138.147 4.3266 138.912C4.02643 139.678 3.86935 140.499 3.86432 141.33C3.85929 142.161 4.00641 142.985 4.29728 143.754C4.58815 144.524 5.01708 145.224 5.55957 145.816C6.10206 146.407 6.74749 146.878 7.45901 147.2Z" fill="#6C63FF"/>
<path d="M11.6166 176.83C14.8454 177.169 24.7623 171.83 24.7623 171.83C24.7623 171.83 15.9574 164.583 12.7287 164.25C11.9501 164.148 11.1605 164.215 10.4063 164.446C9.6521 164.678 8.94869 165.07 8.33753 165.598C7.72638 166.127 7.21987 166.783 6.84789 167.525C6.47591 168.268 6.246 169.084 6.17172 169.924C6.09744 170.764 6.1803 171.611 6.41541 172.416C6.65051 173.221 7.0331 173.968 7.5406 174.611C8.04811 175.254 8.67024 175.782 9.37029 176.162C10.0703 176.543 10.8341 176.768 11.6166 176.826V176.83Z" fill="#6C63FF"/>
<path d="M19.322 205.028C22.4529 205.942 33.0648 202.489 33.0648 202.489C33.0648 202.489 25.5237 193.743 22.3928 192.832C21.6434 192.597 20.8578 192.525 20.0822 192.621C19.3066 192.716 18.5565 192.977 17.8757 193.388C17.1949 193.799 16.5971 194.352 16.1172 195.014C15.6374 195.677 15.2851 196.436 15.0809 197.246C14.8768 198.057 14.8249 198.903 14.9284 199.736C15.0318 200.568 15.2885 201.37 15.6834 202.095C16.0783 202.819 16.6034 203.452 17.2282 203.955C17.853 204.459 18.5648 204.823 19.322 205.028Z" fill="#6C63FF"/>
<path opacity="0.25" d="M11.446 115.488C12.6244 118.737 10.574 130.46 10.574 130.46C10.574 130.46 1.68705 123.326 0.508642 120.076C0.197929 119.298 0.0360617 118.459 0.0326775 117.612C0.0292933 116.764 0.184461 115.924 0.488942 115.143C0.793423 114.361 1.241 113.653 1.80501 113.061C2.36903 112.469 3.03796 112.005 3.77198 111.698C4.50601 111.39 5.29012 111.244 6.07764 111.268C6.86516 111.293 7.63999 111.488 8.356 111.842C9.07202 112.196 9.71457 112.701 10.2454 113.327C10.7763 113.953 11.1846 114.688 11.446 115.488Z" fill="black"/>
<path opacity="0.25" d="M27.0211 129.689C26.3703 133.108 18.7249 141.749 18.7249 141.749C18.7249 141.749 14.8643 130.566 15.5151 127.133C15.6534 126.303 15.9446 125.511 16.3716 124.804C16.7986 124.098 17.3528 123.49 18.0015 123.017C18.6502 122.544 19.3803 122.215 20.1489 122.051C20.9174 121.886 21.7088 121.888 22.4764 122.058C23.244 122.227 23.9724 122.56 24.6185 123.037C25.2647 123.514 25.8156 124.125 26.2388 124.835C26.6621 125.545 26.949 126.338 27.0828 127.169C27.2167 127.999 27.1946 128.851 27.018 129.672L27.0211 129.689Z" fill="black"/>
<path opacity="0.25" d="M37.7879 160.62C35.6206 163.217 24.9708 166.524 24.9708 166.524C24.9708 166.524 26.8853 154.773 29.0494 152.177C30.0964 150.956 31.548 150.228 33.0903 150.15C34.6325 150.072 36.1412 150.65 37.2899 151.76C38.4386 152.87 39.1349 154.422 39.2281 156.08C39.3213 157.738 38.8039 159.369 37.7879 160.62Z" fill="black"/>
<path opacity="0.25" d="M41.0356 186C39.3075 188.954 29.3274 194.158 29.3274 194.158C29.3274 194.158 29.3685 182.231 31.0966 179.277C31.4992 178.556 32.0313 177.929 32.6619 177.433C33.2925 176.937 34.0088 176.58 34.7689 176.386C35.529 176.191 36.3177 176.161 37.0886 176.298C37.8595 176.435 38.5972 176.737 39.2585 177.185C39.9199 177.632 40.4915 178.218 40.9399 178.906C41.3883 179.595 41.7045 180.372 41.87 181.194C42.0355 182.016 42.047 182.864 41.9037 183.691C41.7604 184.517 41.4653 185.305 41.0356 186.007V186Z" fill="black"/>
<path opacity="0.25" d="M7.45901 147.2C10.4477 148.56 21.3945 146.663 21.3945 146.663C21.3945 146.663 15.0191 136.902 12.0305 135.542C11.3189 135.219 10.5553 135.05 9.78304 135.045C9.01081 135.039 8.24515 135.197 7.52979 135.51C6.81442 135.823 6.16334 136.285 5.61374 136.868C5.06414 137.452 4.62677 138.147 4.3266 138.912C4.02643 139.678 3.86935 140.499 3.86432 141.33C3.85929 142.161 4.00641 142.985 4.29728 143.754C4.58815 144.524 5.01708 145.224 5.55957 145.816C6.10206 146.407 6.74749 146.878 7.45901 147.2Z" fill="black"/>
<path opacity="0.25" d="M11.6166 176.83C14.8454 177.169 24.7623 171.83 24.7623 171.83C24.7623 171.83 15.9574 164.583 12.7287 164.25C11.9501 164.148 11.1605 164.215 10.4063 164.446C9.6521 164.678 8.94869 165.07 8.33753 165.598C7.72638 166.127 7.21987 166.783 6.84789 167.525C6.47591 168.268 6.246 169.084 6.17172 169.924C6.09744 170.764 6.1803 171.611 6.41541 172.416C6.65051 173.221 7.0331 173.968 7.5406 174.611C8.04811 175.254 8.67024 175.782 9.37029 176.162C10.0703 176.543 10.8341 176.768 11.6166 176.826V176.83Z" fill="black"/>
<path opacity="0.25" d="M19.322 205.028C22.4529 205.942 33.0648 202.489 33.0648 202.489C33.0648 202.489 25.5237 193.743 22.3928 192.832C21.6434 192.597 20.8578 192.525 20.0822 192.621C19.3066 192.716 18.5565 192.977 17.8757 193.388C17.1949 193.799 16.5971 194.352 16.1172 195.014C15.6374 195.677 15.2851 196.436 15.0809 197.246C14.8768 198.057 14.8249 198.903 14.9284 199.736C15.0318 200.568 15.2885 201.37 15.6834 202.095C16.0783 202.819 16.6034 203.452 17.2282 203.955C17.853 204.459 18.5648 204.823 19.322 205.028Z" fill="black"/>
<path opacity="0.1" d="M146.432 170.1C140.429 169.957 133.981 170.28 129.211 172.819C120.365 177.516 121.556 187.044 115.787 193.655C110.915 199.236 101.605 202.135 92.5758 203.984C77.8663 206.999 62.4396 208.128 47.8312 211.367C39.219 213.277 30.6701 216.054 24.7686 220.806C18.8671 225.558 16.2196 232.645 20.2098 238.266C23.8998 243.464 32.0286 246.244 39.4307 248.936C46.8329 251.628 54.6741 255.16 56.734 260.771C57.8808 263.895 57.0278 267.263 58.3673 270.346C61.0085 276.43 70.9001 279.303 79.7871 280.856C86.8859 282.097 94.1017 283.011 101.374 283.575C107.184 284.034 113.127 284.275 118.829 283.381C123.767 282.606 128.339 281.002 133.074 279.768C163.163 271.886 197.77 278.704 228.459 272.029C234.044 270.822 239.538 269.123 243.772 266.342C246.931 264.276 249.269 261.692 251.237 259.014C256.248 252.216 258.993 244.592 259.205 236.948C259.331 232.366 258.573 227.736 259.738 223.223C260.961 218.525 264.225 214.205 265.962 209.586C269.121 201.19 266.91 191.911 260.032 184.647C257.577 181.97 254.567 179.957 251.25 178.774C248.469 177.815 245.361 177.448 242.299 177.074C233.769 176.078 225.129 175.079 216.523 175.64C210.4 176.041 204.407 177.227 198.266 177.441C189.647 177.744 182.896 175.606 175.083 173.597C166.095 171.306 155.982 170.324 146.432 170.1Z" fill="#6C63FF"/>
<path d="M37.9553 100.614V191.527L150.387 168.03L148.239 98.3025L37.9553 100.614Z" fill="#DBACA2"/>
<path d="M249.3 207.805V237.852L130.424 275.22L129.211 274.544L35.1815 222.057V97.8198L151.55 93.775L152.267 162.731L147.61 164.274L145.819 99.7776L43.4145 103.598L42.7006 197.016L131.855 239.007L131.924 238.99L249.3 207.805Z" fill="#E8C2B8"/>
<path opacity="0.1" d="M249.3 207.805V237.852L130.424 275.22L129.211 274.544L131.924 238.991L249.3 207.805Z" fill="black"/>
<path d="M105.987 164.175C105.987 164.175 48.4315 170.354 42.8427 179.304C37.254 188.254 42.7953 199.232 42.7953 199.232L131.773 240.836L252.437 207.322C252.437 207.322 249.215 183.821 239.191 181.126C229.166 178.43 149.31 159.94 149.31 159.94C149.31 159.94 117.085 157.819 105.987 164.175Z" fill="#EBECF0"/>
<path d="M42.789 179.389L133.558 213.097C133.558 213.097 230.373 181.513 244.087 184.488C244.087 184.488 176.362 158.407 149.31 159.542C127.751 160.446 105.178 164.253 105.178 164.253C105.178 164.253 45.2975 170.725 42.789 179.389Z" fill="#F8F9FA"/>
<path d="M182.444 201.075L182.466 201.041V201.02L182.482 200.986V200.962V200.928V200.905V200.867V200.843V200.799V200.779C182.482 200.758 182.482 200.738 182.482 200.718C182.482 200.694 182.482 200.67 182.482 200.646C182.482 200.623 182.482 200.646 182.482 200.623C182.482 200.599 182.482 200.589 182.482 200.572V200.541V200.49V200.456V200.405V200.371V200.317V200.283V200.225V200.194L182.457 200.109L182.425 200.014V199.984L182.4 199.916V199.878L182.375 199.814L182.359 199.773L182.333 199.708L182.314 199.664L182.286 199.599L182.267 199.559L182.232 199.487L182.213 199.45L182.166 199.351L182.109 199.236L182.09 199.198L182.049 199.117L182.027 199.073L181.986 198.998L181.961 198.95L181.92 198.875L181.85 198.763L181.806 198.688L181.777 198.641L181.73 198.559L181.705 198.515L181.642 198.406V198.386L181.563 198.257L181.537 198.219L181.48 198.128L181.449 198.08L181.395 197.998L181.364 197.948L181.31 197.866L181.275 197.812L181.218 197.744L181.184 197.693L181.123 197.604L181.092 197.56L181.013 197.444V197.427L180.921 197.291L180.89 197.244L180.83 197.156L180.789 197.098L180.732 197.016L180.691 196.958L180.634 196.877L180.593 196.822L180.533 196.737L180.492 196.683L180.428 196.595L180.391 196.544L180.315 196.442L180.289 196.408C180.005 196.02 179.711 195.633 179.417 195.259C178.589 194.199 177.574 193.326 176.431 192.688C175.289 192.051 174.04 191.662 172.758 191.544C172.496 191.52 172.221 191.489 171.943 191.452H171.826L171.62 191.421H171.522L171.207 191.374L170.906 191.323L170.802 191.302L170.59 191.262L170.464 191.234L170.271 191.194L170.136 191.163L169.952 191.119L169.813 191.085L169.63 191.037L169.488 191L169.308 190.949L169.166 190.908L168.986 190.854C168.038 189.338 166.597 187.988 165.194 187.727C164.808 187.662 164.413 187.684 164.035 187.791L163.969 187.713L163.874 187.598L163.748 187.424L163.665 187.309L163.533 187.108L163.466 187.01C163.401 186.908 163.339 186.803 163.28 186.697C163.094 186.608 162.899 186.54 162.699 186.496C165.494 186.041 168.251 185.342 170.941 184.406C171.072 184.353 171.196 184.283 171.311 184.199L171.368 184.178C173.709 183.26 176.584 174.321 174.562 173.07C172.54 171.819 169.453 161.514 167.643 156.235C165.833 150.956 160.617 150.396 160.617 150.396C160.617 150.396 153.06 144.097 149.654 144.784C146.248 145.47 145.714 139.974 145.395 139.746C145.358 139.713 145.327 139.673 145.304 139.627C144.482 138.244 137.952 136.398 134.43 135.487C130.986 132.802 126.879 130.719 123.559 129.859C122.449 129.536 121.286 129.494 120.159 129.735C119.032 129.977 117.972 130.496 117.063 131.252C110.088 131.633 108.975 137.303 108.975 137.303C108.952 138.076 109.076 138.847 109.342 139.566C108.965 139.572 108.588 139.55 108.214 139.502C109.023 138.064 109.048 136.215 109.652 134.634C110.843 131.507 114.128 129.893 117.234 129.471C119.044 129.227 121.025 129.227 122.453 128.006C123.188 127.374 123.69 126.481 123.868 125.488C123.926 125.273 123.908 125.043 123.818 124.842C123.729 124.711 123.61 124.608 123.473 124.543C121.603 123.469 119.35 123.747 117.227 123.696C113.778 123.615 110.416 122.598 107.08 121.657C105.668 121.259 104.142 120.875 102.777 121.439C101.488 121.97 100.61 123.234 99.5767 124.216C95.3433 128.234 88.3139 127.653 84.5481 132.18C83.6761 133.231 83.0222 134.655 83.3413 136.021C83.4708 136.579 83.7583 137.092 83.8499 137.659C84.0331 138.781 83.4392 139.855 82.9369 140.858C82.4345 141.861 81.9891 143.077 82.463 144.097C83.1801 145.654 85.3695 145.538 86.5068 146.772C87.0344 147.347 87.2903 148.169 87.84 148.716C88.7215 149.59 90.0768 149.522 91.271 149.396C91.7417 149.349 92.4462 149.209 92.7053 148.764C93.629 149.699 94.7418 150.39 95.9561 150.783C97.1704 151.177 98.4529 151.261 99.7028 151.031C100.953 150.8 102.136 150.26 103.159 149.454C104.182 148.648 105.017 147.597 105.598 146.385C108.172 146.198 110.729 146.942 112.865 148.499C113.186 149.519 113.777 150.417 114.564 151.082C115.31 151.711 116.198 152.482 117.092 153.308C114.826 153.951 112.814 154.362 112.814 154.362C112.814 154.362 103.873 157.455 103.873 159.515C103.905 159.888 104.013 160.249 104.189 160.572C103.963 161.084 103.835 161.64 103.813 162.207C101.346 161.758 99.3713 161.082 98.3509 160.086C98.3509 160.086 98.0602 160.001 97.6116 159.906C97.0114 159.08 95.2485 156.786 94.1996 156.877C93.5014 156.939 93.2518 158.686 93.1634 160.249C93.0715 160.335 92.9908 160.433 92.9233 160.542C91.8586 162.258 93.7763 165.694 95.0526 166.269C96.329 166.843 103.355 166.609 108.145 170.392C110.268 172.068 113.917 172.39 117.306 172.234C113.898 174.824 109.124 178.804 108.461 181.272C108.104 182.581 107.683 184.205 107.709 185.874C105.624 188.842 102.467 195.106 110.271 198.111C116.703 200.582 134.142 200.266 146.567 199.661C152.349 200.758 157.123 201.863 159.126 202.92C159.126 202.92 163.915 203.6 165.833 204.868C167.75 206.136 171.26 205.786 171.26 205.786C171.26 205.786 178.072 207.047 179.563 208.648C181.054 210.248 183.607 205.898 180.416 203.838C179.171 203.036 177.317 201.714 175.519 200.266C177.828 200.558 179.866 200.877 181.161 201.204L181.291 201.234H181.332H181.414H181.462H181.531H181.575H181.642H181.958H182.04H182.065H182.115H182.144H182.185H182.21H182.248H182.273L182.308 201.217H182.33L182.362 201.194H182.378L182.419 201.156L182.444 201.075ZM153.041 190.096C153.041 190.096 152.144 189.875 150.804 189.535L148.144 188.379C148.144 188.379 152.684 186.843 156.889 184.889C158.092 185.456 159.151 185.908 159.416 186.32C159.53 186.456 159.686 186.544 159.855 186.568C158.276 186.989 156.247 188.073 153.869 190.575C153.58 190.442 153.303 190.282 153.041 190.096ZM120.899 162.496L123.524 161.184C124.096 161.707 124.709 162.204 125.309 162.686C123.868 162.778 121.932 162.88 119.742 162.945C120.412 162.703 120.899 162.496 120.899 162.496Z" fill="#808080" opacity="0.2"/>
<path d="M98.5278 160.307C98.5278 160.307 96.2342 156.956 94.9863 157.058C93.7384 157.16 93.9437 162.775 93.9437 162.775L98.5278 160.307Z" fill="#FFD5D8"/>
<path d="M128.016 162.55C128.016 162.55 103.633 164.682 99.0491 160.195C99.0491 160.195 94.7778 158.961 93.7352 160.644C92.6927 162.326 94.5693 165.688 95.8203 166.248C97.0714 166.809 103.949 166.588 108.637 170.283C113.326 173.978 125.622 170.963 125.622 170.963L130.727 168.832L128.016 162.55Z" fill="#FF7C5E"/>
<path opacity="0.05" d="M128.016 162.55C128.016 162.55 103.633 164.682 99.0491 160.195C99.0491 160.195 94.7778 158.961 93.7352 160.644C92.6927 162.326 94.5693 165.688 95.8203 166.248C97.0714 166.809 103.949 166.588 108.637 170.283C113.326 173.978 125.622 170.963 125.622 170.963L130.727 168.832L128.016 162.55Z" fill="black"/>
<path d="M162.923 175.106C162.923 175.106 157.713 171.072 146.981 176.126C136.249 181.18 109.471 183.862 109.471 183.862C109.471 183.862 100.512 193.502 110.735 197.427C120.959 201.353 159.498 198.107 159.498 198.107C159.498 198.107 175.231 199.229 180.128 200.463C183.092 201.211 180.76 197.601 178.438 194.637C177.627 193.599 176.634 192.743 175.515 192.119C174.396 191.494 173.173 191.114 171.917 191C168.84 190.718 164.572 189.678 162.62 186.224C162.62 186.224 158.87 184.205 153.243 190.259L147.815 187.886C147.815 187.886 162.714 182.842 163.236 179.477C163.757 176.112 162.923 175.106 162.923 175.106Z" fill="#FFD5D8"/>
<path opacity="0.05" d="M162.923 175.106C162.923 175.106 157.713 171.072 146.981 176.126C136.249 181.18 109.471 183.862 109.471 183.862C109.471 183.862 100.512 193.502 110.735 197.428C120.959 201.353 159.498 198.107 159.498 198.107C159.498 198.107 175.231 199.229 180.128 200.463C182.725 201.115 181.25 198.423 179.294 195.765C178.319 194.43 177.108 193.316 175.731 192.486C174.354 191.657 172.837 191.129 171.27 190.932C168.268 190.565 164.439 189.44 162.623 186.224C162.623 186.224 158.873 184.205 153.246 190.259L147.815 187.887C147.815 187.887 162.714 182.842 163.236 179.477C163.757 176.112 162.923 175.106 162.923 175.106Z" fill="black"/>
<path d="M163.027 159.189C163.027 159.189 156.462 147.972 140.938 157.731L121.034 169.627C121.034 169.627 109.977 177.139 108.947 180.949C107.917 184.759 106.341 191.262 117.18 193.729C128.019 196.197 153.234 199.334 158.547 202.138C158.547 202.138 163.236 202.818 165.112 204.045C166.989 205.272 170.426 204.943 170.426 204.943C170.426 204.943 177.095 206.176 178.555 207.747C180.015 209.317 182.514 205.055 179.389 203.039C176.265 201.024 169.178 195.64 169.279 193.522C169.38 191.404 166.882 187.662 164.474 187.207C162.067 186.751 158.952 190.568 158.952 190.568C158.952 190.568 154.993 191.248 152.595 189.549C152.595 189.549 140.3 186.52 139.048 185.626C137.797 184.732 129.255 181.255 129.255 181.255C129.255 181.255 149.474 181.031 155.407 175.201C155.407 175.201 157.701 173.407 159.574 173.968C159.59 173.985 168.862 170.174 163.027 159.189Z" fill="#FFD5D8"/>
<path d="M103.946 138.112C103.946 138.112 109.885 142.595 114.469 138.112C119.054 133.628 116.453 151.901 116.453 151.901C116.453 151.901 110.097 142.819 100.616 148.764L103.946 138.112Z" fill="#FFD5D8"/>
<path opacity="0.05" d="M103.946 138.112C103.946 138.112 109.885 142.595 114.469 138.112C119.054 133.628 116.453 151.901 116.453 151.901C116.453 151.901 110.097 142.819 100.616 148.764L103.946 138.112Z" fill="black"/>
<path d="M78.5234 176.564C78.5234 176.564 84.7756 170.847 88.3171 170.735C89.3723 170.701 90.5917 169.545 91.7923 167.941C93.3088 165.914 95.3091 164.369 97.579 163.471C99.8489 162.573 102.303 162.356 104.679 162.843C106.694 163.244 109.175 163.234 112.185 162.431C123.126 159.515 117.708 152.234 117.708 152.234L114.27 149.097C114.27 149.097 109.582 145.623 107.81 145.848C106.037 146.072 101.453 151.116 100.932 150.555C100.411 149.994 94.0543 144.95 93.0117 143.604C91.9692 142.258 83.6287 137.887 85.7139 136.653C87.799 135.419 98.3193 130.824 96.2342 129.927C94.1491 129.029 82.8958 127.683 78.5202 133.288C74.1446 138.893 76.3309 173.312 78.5234 176.564Z" fill="#F8F9FA"/>
<path opacity="0.05" d="M78.5234 176.564C78.5234 176.564 84.7756 170.847 88.3171 170.735C89.3723 170.701 90.5917 169.545 91.7923 167.941C93.3088 165.914 95.3091 164.369 97.579 163.471C99.8489 162.573 102.303 162.356 104.679 162.843C106.694 163.244 109.175 163.234 112.185 162.431C123.126 159.515 117.708 152.234 117.708 152.234L114.27 149.097C114.27 149.097 109.582 145.623 107.81 145.848C106.037 146.072 101.453 151.116 100.932 150.555C100.411 149.994 94.0543 144.95 93.0117 143.604C91.9692 142.258 83.6287 137.887 85.7139 136.653C87.799 135.419 98.3193 130.824 96.2342 129.927C94.1491 129.029 82.8958 127.683 78.5202 133.288C74.1446 138.893 76.3309 173.312 78.5234 176.564Z" fill="black"/>
<path d="M78.9404 175.779C78.9404 175.779 85.1926 170.062 88.7341 169.95C89.7893 169.916 91.0088 168.76 92.2093 167.156C93.7241 165.131 95.7216 163.587 97.9884 162.689C100.255 161.79 102.706 161.571 105.08 162.054C107.096 162.455 109.576 162.445 112.587 161.643C123.527 158.727 118.109 151.446 118.109 151.446L114.672 148.309C114.672 148.309 109.983 144.835 108.211 145.059C106.439 145.283 101.855 150.328 101.333 149.767C100.812 149.206 94.4555 144.162 93.413 142.816C92.3704 141.47 84.0458 137.102 86.1246 135.882C88.2034 134.662 98.7332 130.053 96.6481 129.155C94.5629 128.258 83.3097 126.912 78.9341 132.517C74.5585 138.122 76.751 172.526 78.9404 175.779Z" fill="#F8F9FA"/>
<path d="M109.468 137.887C109.468 137.887 111.136 129.366 123.328 132.731C135.52 136.096 141.563 143.38 141.563 143.38L130.506 148.873L116.959 143.941C116.959 143.941 109.367 144.039 109.468 137.887Z" fill="#FFD5D8"/>
<path opacity="0.05" d="M131.77 135.756C131.77 135.756 143.494 138.475 144.599 140.348C144.623 140.392 144.654 140.432 144.691 140.464C145.007 140.688 145.525 146.069 148.858 145.396C152.191 144.723 159.599 150.888 159.599 150.888C159.599 150.888 164.705 151.449 166.477 156.605C168.249 161.762 171.27 171.853 173.251 173.084C175.231 174.314 172.417 183.06 170.126 183.961C167.836 184.861 159.603 186.989 158.873 185.867C158.143 184.746 151.787 183.512 152.204 179.926C152.621 176.34 155.12 172.975 153.151 170.844C151.183 168.713 149.923 163.108 147.003 161.986C144.084 160.864 138.875 160.528 135.75 162.771C132.626 165.015 128.85 165.113 128.85 165.113C128.85 165.113 122.39 161.079 121.347 158.274C120.646 156.385 117.152 153.223 114.946 151.364C114.369 150.876 113.896 150.258 113.563 149.554C113.23 148.849 113.043 148.075 113.016 147.285C112.925 144.519 112.842 140.44 113.114 139.78C113.531 138.761 119.262 132.717 119.262 132.717L131.77 135.756Z" fill="black"/>
<path d="M132.187 135.542C132.187 135.542 143.911 138.261 145.016 140.134C145.04 140.178 145.071 140.217 145.108 140.249C145.424 140.474 145.942 145.854 149.275 145.181C152.608 144.508 160.016 150.674 160.016 150.674C160.016 150.674 165.122 151.235 166.894 156.391C168.667 161.548 171.687 171.639 173.668 172.87C175.648 174.1 172.834 182.846 170.543 183.746C168.253 184.647 160.02 186.775 159.29 185.653C158.56 184.532 152.204 183.298 152.621 179.712C153.038 176.126 155.537 172.761 153.568 170.63C151.6 168.499 150.34 162.894 147.421 161.772C144.501 160.65 139.292 160.314 136.167 162.557C133.043 164.8 128.926 165.191 128.926 165.191C128.926 165.191 122.832 160.875 121.789 158.074C121.088 156.184 117.594 153.023 115.389 151.164C114.811 150.676 114.339 150.058 114.005 149.353C113.672 148.649 113.485 147.875 113.458 147.085C113.367 144.318 113.285 140.239 113.556 139.58C113.973 138.56 119.704 132.517 119.704 132.517L132.187 135.542Z" fill="#FF7C5E"/>
<path d="M105.197 159.858C105.093 159.971 103.32 162.775 105.406 164.342C105.982 164.797 106.649 165.103 107.353 165.237C108.058 165.371 108.781 165.328 109.468 165.113L105.197 159.858Z" fill="#FFD5D8"/>
<path opacity="0.1" d="M115.19 135.42C115.19 135.42 118.005 129.366 124.036 130.936C130.067 132.507 138.83 138.224 140.916 143.941C143.001 149.658 133.017 156.616 133.017 156.616L121.139 162.557C121.139 162.557 117.493 164.127 116.45 163.577C115.408 163.026 110.407 167.832 110.407 167.832C110.407 167.832 104.78 162.003 104.78 159.984C104.78 157.965 113.534 154.916 113.534 154.916C113.534 154.916 123.96 152.785 123.849 150.657C123.849 150.657 125.622 148.414 124.683 147.741C123.745 147.068 113.689 143.873 113.689 143.873C113.689 143.873 113.326 136.766 115.19 135.42Z" fill="black"/>
<path d="M114.874 135.083C114.874 135.083 117.689 129.029 123.72 130.6C129.751 132.17 138.515 137.887 140.6 143.604C142.685 149.321 132.705 156.276 132.705 156.276L120.826 162.217C120.826 162.217 117.18 163.788 116.138 163.237C115.095 162.686 110.094 167.492 110.094 167.492C110.094 167.492 104.467 161.663 104.467 159.644C104.467 157.625 113.222 154.576 113.222 154.576C113.222 154.576 123.647 152.445 123.537 150.317C123.537 150.317 125.309 148.074 124.371 147.401C123.432 146.728 113.376 143.533 113.376 143.533C113.376 143.533 113.013 136.429 114.874 135.083Z" fill="#FF7C5E"/>
<path opacity="0.1" d="M101.551 147.639C103.241 146.531 105.144 145.854 107.115 145.657C107.686 144.471 106.186 143.179 106.186 141.752C106.186 140.555 105.762 140.1 105.352 139.06C103.861 138.479 104.884 136.986 104.884 136.986L101.551 147.639Z" fill="black"/>
<path d="M99.0491 151.453C103.481 151.453 107.074 147.587 107.074 142.819C107.074 138.051 103.481 134.186 99.0491 134.186C94.6173 134.186 91.0246 138.051 91.0246 142.819C91.0246 147.587 94.6173 151.453 99.0491 151.453Z" fill="#FFD5D8"/>
<path d="M93.0339 146.361C94.8252 144.872 97.1567 144.373 99.4124 144.155C100.821 144.019 102.256 143.971 103.608 143.509C104.386 143.217 105.14 142.858 105.864 142.435C106.83 141.905 107.829 141.347 108.489 140.419C109.519 138.971 109.487 136.966 110.132 135.277C111.298 132.218 114.514 130.634 117.565 130.222C119.338 129.981 121.274 129.981 122.677 128.788C123.397 128.17 123.889 127.296 124.064 126.324C124.12 126.114 124.102 125.888 124.014 125.692C123.927 125.564 123.81 125.463 123.675 125.399C121.843 124.349 119.638 124.621 117.562 124.57C114.185 124.492 110.893 123.492 107.626 122.571C106.243 122.18 104.748 121.807 103.415 122.357C102.151 122.877 101.295 124.114 100.281 125.076C96.1362 129.012 89.2554 128.441 85.5685 132.874C84.7155 133.893 84.0742 135.297 84.387 136.633C84.5165 137.18 84.7945 137.68 84.8861 138.237C85.0662 139.335 84.4849 140.389 83.9921 141.368C83.4992 142.347 83.0696 143.543 83.5276 144.539C84.2322 146.062 86.371 145.95 87.4862 147.156C88.0043 147.717 88.2507 148.516 88.791 149.06C89.6566 149.916 90.9803 149.848 92.1493 149.74C92.7811 149.675 93.8142 149.451 93.6341 148.54C93.4825 147.724 92.481 147.374 93.0339 146.361Z" fill="#85596B"/>
<path d="M90.2316 151.517C90.2316 151.517 95.7034 147.099 99.1407 148.547C102.578 149.995 103.516 150.79 105.706 149.906C107.895 149.022 108.83 151.701 108.83 151.701L95.1948 155.936L90.2316 151.517Z" fill="#F8F9FA"/>
<path opacity="0.05" d="M82.8484 159.243C82.8484 159.243 85.3505 152.292 88.3708 150.946L82.8484 159.243Z" fill="black"/>
<path opacity="0.05" d="M79.6165 157C79.6165 157 82.1186 150.049 85.1389 148.703L79.6165 157Z" fill="black"/>
<path opacity="0.05" d="M138.176 158.682C138.176 158.682 147.022 154.087 152.971 154.536C158.92 154.984 159.953 150.95 159.953 150.95" fill="black"/>
<path d="M99.9084 274.419C99.1723 273.681 98.4804 272.811 98.2656 271.754C98.0508 270.697 98.4709 269.426 99.4124 269.035C100.464 268.6 101.592 269.375 102.445 270.18C103.298 270.986 104.278 271.88 105.393 271.71C104.818 271.149 104.389 270.438 104.146 269.646C103.903 268.854 103.855 268.007 104.006 267.189C104.055 266.851 104.188 266.534 104.391 266.272C104.976 265.592 106.037 265.887 106.736 266.418C108.947 268.117 109.579 271.356 109.595 274.286C109.819 273.229 109.629 272.128 109.636 271.044C109.642 269.959 109.917 268.76 110.767 268.175C111.296 267.869 111.891 267.719 112.492 267.74C113.493 267.699 114.608 267.808 115.291 268.596C116.141 269.575 115.923 271.217 115.18 272.295C114.438 273.372 113.316 274.048 112.283 274.793C111.454 275.325 110.747 276.051 110.214 276.917C110.151 277.038 110.099 277.166 110.059 277.298H103.788C102.38 276.531 101.075 275.562 99.9084 274.419Z" fill="#6C63FF"/>
<path d="M244.77 275.117C244.281 274.688 243.925 274.109 243.749 273.458C243.617 272.799 243.879 272.01 244.463 271.759C245.117 271.49 245.819 271.976 246.359 272.472C246.899 272.969 247.496 273.529 248.191 273.424C247.834 273.076 247.567 272.634 247.416 272.141C247.264 271.648 247.235 271.122 247.329 270.613C247.359 270.403 247.442 270.205 247.569 270.042C247.932 269.624 248.593 269.804 249.029 270.134C250.412 271.181 250.798 273.193 250.807 275.025C250.946 274.369 250.829 273.682 250.833 273.009C250.836 272.336 251.006 271.589 251.537 271.228C251.867 271.037 252.237 270.943 252.611 270.956C253.243 270.933 253.925 271.001 254.352 271.49C254.88 272.098 254.744 273.118 254.282 273.788C253.821 274.457 253.123 274.879 252.482 275.341C251.966 275.672 251.527 276.124 251.196 276.663C251.157 276.738 251.125 276.817 251.101 276.898H247.18C246.306 276.424 245.495 275.825 244.77 275.117Z" fill="#6C63FF"/>
</g>
<defs>
<linearGradient id="paint0_linear_1_97" x1="132.42" y1="208.994" x2="132.42" y2="121.154" gradientUnits="userSpaceOnUse">
<stop stop-color="#808080" stop-opacity="0.25"/>
<stop offset="0.54" stop-color="#808080" stop-opacity="0.12"/>
<stop offset="1" stop-color="#808080" stop-opacity="0.1"/>
</linearGradient>
<clipPath id="clip0_1_97">
<rect width="334" height="284" fill="white"/>
</clipPath>
</defs>
</svg>
