<svg width="324" height="284" viewBox="0 0 324 284" fill="none" xmlns="http://www.w3.org/2000/svg">
<g clip-path="url(#clip0_129_91)">
<path d="M324 96.0782V169.967H148.555V96.0782C148.523 75.2842 154.681 55.0456 166.096 38.4297C173.754 27.2454 183.548 18.0263 194.795 11.4161C206.042 4.80584 218.471 0.963746 231.214 0.158014C232.886 0.0509171 234.574 -0.0013547 236.277 0.00119522C237.245 0.00119522 238.212 0.0164945 239.169 0.0547432C261.427 0.826855 282.577 10.8722 298.304 28.1408C298.779 28.661 299.243 29.185 299.711 29.7128C302.115 32.4704 304.368 35.3811 306.458 38.4297C317.872 55.0465 324.03 75.2845 324 96.0782Z" fill="#3F3D56"/>
<path d="M280.306 93.1296C293.073 93.1296 303.423 81.7944 303.423 67.8118C303.423 53.8291 293.073 42.4939 280.306 42.4939C267.54 42.4939 257.19 53.8291 257.19 67.8118C257.19 81.7944 267.54 93.1296 280.306 93.1296Z" fill="#6C63FF"/>
<path opacity="0.2" d="M278.033 53.2851C279.498 53.2851 280.685 51.9844 280.685 50.3798C280.685 48.7752 279.498 47.4745 278.033 47.4745C276.568 47.4745 275.38 48.7752 275.38 50.3798C275.38 51.9844 276.568 53.2851 278.033 53.2851Z" fill="black"/>
<path opacity="0.2" d="M282.58 82.3384C284.045 82.3384 285.233 81.0376 285.233 79.4331C285.233 77.8285 284.045 76.5277 282.58 76.5277C281.115 76.5277 279.927 77.8285 279.927 79.4331C279.927 81.0376 281.115 82.3384 282.58 82.3384Z" fill="black"/>
<path opacity="0.2" d="M292.812 65.3215C293.858 65.3215 294.707 64.3924 294.707 63.2463C294.707 62.1001 293.858 61.171 292.812 61.171C291.766 61.171 290.917 62.1001 290.917 63.2463C290.917 64.3924 291.766 65.3215 292.812 65.3215Z" fill="black"/>
<path opacity="0.2" d="M271.212 76.5277C274.56 76.5277 277.275 73.5546 277.275 69.887C277.275 66.2194 274.56 63.2462 271.212 63.2462C267.863 63.2462 265.148 66.2194 265.148 69.887C265.148 73.5546 267.863 76.5277 271.212 76.5277Z" fill="black"/>
<path opacity="0.8" d="M207.639 137.336L219.153 122.573L230.668 107.809L237.168 99.4752C237.527 99.014 236.972 98.2946 236.613 98.7558L225.098 113.519L213.584 128.283L207.084 136.617C206.725 137.078 207.28 137.797 207.639 137.336V137.336Z" fill="white"/>
<path opacity="0.8" d="M206.591 72.3135L218.106 57.55L229.62 42.7865L236.12 34.4523C236.48 33.9912 235.925 33.2718 235.565 33.7329L224.051 48.4964L212.536 63.2598L206.036 71.594C205.677 72.0551 206.232 72.7745 206.591 72.3134V72.3135Z" fill="white"/>
<path d="M239.17 0.055475V169.966H231.212V0.158462C232.887 0.0515085 234.575 -0.0013122 236.276 1.00409e-06C237.246 1.00409e-06 238.212 0.0158416 239.17 0.055475Z" fill="#1D1D1D"/>
<path d="M306.458 38.4306H166.095C168.184 35.3816 170.437 32.4711 172.841 29.7144H299.711C302.115 32.4711 304.368 35.3816 306.458 38.4306V38.4306Z" fill="#1D1D1D"/>
<path d="M304.394 113.84C305.4 113.84 306.215 112.947 306.215 111.845C306.215 110.743 305.4 109.85 304.394 109.85C303.388 109.85 302.573 110.743 302.573 111.845C302.573 112.947 303.388 113.84 304.394 113.84Z" fill="#E6E6E6"/>
<path d="M186.704 97.393C187.71 97.393 188.525 96.4999 188.525 95.3982C188.525 94.2964 187.71 93.4033 186.704 93.4033C185.698 93.4033 184.883 94.2964 184.883 95.3982C184.883 96.4999 185.698 97.393 186.704 97.393Z" fill="#E6E6E6"/>
<path d="M269.825 104.322L268.916 105.311L268.013 104.315L267.407 104.974L268.309 105.97L267.4 106.959L268.002 107.622L268.911 106.634L269.814 107.629L270.421 106.97L269.517 105.974L270.426 104.986L269.825 104.322Z" fill="#E6E6E6"/>
<path d="M169.247 124.211L168.338 125.2L167.435 124.204L166.829 124.863L167.732 125.859L166.823 126.848L167.424 127.512L168.334 126.523L169.236 127.519L169.843 126.859L168.94 125.864L169.849 124.875L169.247 124.211Z" fill="#E6E6E6"/>
<path d="M259.697 135.685L258.788 136.675L257.885 135.679L257.279 136.338L258.182 137.334L257.273 138.323L257.874 138.986L258.784 137.998L259.687 138.993L260.293 138.334L259.39 137.338L260.299 136.349L259.697 135.685Z" fill="#E6E6E6"/>
<path d="M198.233 47.7134L197.324 48.7025L196.421 47.7065L195.815 48.3659L196.718 49.3615L195.808 50.3506L196.41 51.0143L197.32 50.0255L198.222 51.0211L198.829 50.3617L197.925 49.3661L198.835 48.3774L198.233 47.7134Z" fill="#E6E6E6"/>
<path d="M211.666 269.961H0V270.726H211.666V269.961Z" fill="#535353"/>
<path d="M33.674 208.289C29.0468 215.453 27.8245 256.226 27.5521 269.296C27.5451 269.59 27.5381 269.869 27.5346 270.133H15.8215C15.6783 269.854 15.5456 269.579 15.4199 269.296C8.47721 254.287 12.3292 236.291 12.5318 235.38C12.0044 238.241 14.3896 246.534 17.0857 254.566C18.7305 229.869 32.794 209.536 33.674 208.289Z" fill="#535353"/>
<path d="M105.902 171.58L104.576 177.872C104.576 177.872 105.018 192.391 101.483 190.939C97.9477 189.487 98.8315 176.904 98.8315 176.904L101.925 170.612L105.902 171.58Z" fill="#FFB8B8"/>
<path d="M86.2373 102.612C91.1184 102.612 95.0753 98.2783 95.0753 92.9324C95.0753 87.5864 91.1184 83.2527 86.2373 83.2527C81.3562 83.2527 77.3993 87.5864 77.3993 92.9324C77.3993 98.2783 81.3562 102.612 86.2373 102.612Z" fill="#FFB8B8"/>
<path d="M79.3878 95.5943L78.504 109.63L89.5515 111.082C89.5515 111.082 89.5515 99.4661 90.4353 98.0142C91.3191 96.5622 79.3878 95.5943 79.3878 95.5943Z" fill="#FFB8B8"/>
<path d="M103.888 113.872L89.5724 107.249C89.5724 107.249 82.7321 101.479 78.7256 105.754L76.9275 108.574C76.9275 108.574 61.0246 115.365 61.0288 120.689L67.2366 147.302C67.2366 147.302 63.7134 162.309 69.017 163.272L97.7428 166.149C97.7428 166.149 101.716 160.821 98.175 154.049L99.488 138.076L103.888 113.872Z" fill="#E6E6E6"/>
<path d="M94.1663 114.366L103.888 113.872C103.888 113.872 106.982 114.837 109.199 124.031C111.415 133.225 111.869 148.228 111.869 148.228L106.588 175.336L99.9589 174.374L102.589 148.237L98.1565 130.817L94.1663 114.366Z" fill="#E6E6E6"/>
<path d="M66.3289 117.296L61.5371 118.936C61.5371 118.936 57.4974 125.532 57.5001 128.92C57.5028 132.308 55.7557 157.961 55.7557 157.961L67.2617 178.761L70.7888 168.594L63.708 155.534L69.4399 139.557L66.3289 117.296Z" fill="#E6E6E6"/>
<path d="M99.0524 165.046L67.2813 161.984C67.2813 161.984 64.1424 183.921 64.5843 192.633C65.0262 201.345 65.4681 214.896 65.4681 214.896L61.9329 273.942L75.6318 272.006L77.3993 223.124L83.144 196.505L89.7725 230.384L94.1915 273.942L106.123 272.49L102.146 219.736C102.146 219.736 105.681 172.306 99.0524 165.046Z" fill="#2F2E41"/>
<path d="M103.471 270.071L107.449 271.522C107.449 271.522 115.845 269.103 113.635 275.394C111.426 281.686 105.239 280.718 105.239 280.718C105.239 280.718 97.7267 287.01 94.6334 282.17L96.401 272.006L103.471 270.071Z" fill="#2F2E41"/>
<path d="M71.2127 270.071L75.1898 271.522C75.1898 271.522 83.5859 269.103 81.3764 275.394C79.1669 281.686 72.9803 280.718 72.9803 280.718C72.9803 280.718 65.4681 287.01 62.3748 282.17L64.1424 272.006L71.2127 270.071Z" fill="#2F2E41"/>
<path d="M79.3879 101.402C79.3879 101.402 70.108 94.1423 74.9689 85.4306C78.3411 79.3869 85.3288 79.8653 89.2926 80.7252C90.3605 80.941 91.3644 81.4381 92.2179 82.1735C93.0713 82.909 93.7487 83.8607 94.1915 84.9466C94.8544 86.6406 94.8544 88.3345 92.203 88.3345C86.9002 88.3345 89.5516 92.6904 89.5516 92.6904C89.5516 92.6904 86.0164 93.6583 86.9002 97.0462C87.784 100.434 79.3879 101.402 79.3879 101.402Z" fill="#2F2E41"/>
</g>
<defs>
<linearGradient id="paint0_linear_129_91" x1="206.968" y1="118.046" x2="237.284" y2="118.046" gradientUnits="userSpaceOnUse">
<stop stop-color="white" stop-opacity="0.3"/>
<stop offset="0.0001" stop-color="#1D1D1D"/>
</linearGradient>
<linearGradient id="paint1_linear_129_91" x1="22208.5" y1="8484.45" x2="24840.3" y2="8484.45" gradientUnits="userSpaceOnUse">
<stop stop-color="#1D1D1D"/>
<stop offset="1" stop-color="white" stop-opacity="0.3"/>
</linearGradient>
<clipPath id="clip0_129_91">
<rect width="324" height="284" fill="white"/>
</clipPath>
</defs>
</svg>
